<svg xmlns="http://www.w3.org/2000/svg" width="100" height="100"><g fill="#f9eff0"><rect width="20" height="20"/><rect width="20" height="20" fill="#c19384" x="20"/><rect width="20" height="20" fill="#df8350" x="40"/><rect width="20" height="20" fill="#fcceb4" x="60"/><rect width="20" height="20" fill="#ffd1c0" x="80"/><rect width="20" height="20" fill="#f8eeef" y="20"/><rect width="20" height="20" fill="#793913" x="20" y="20"/><rect width="20" height="20" fill="#f1a17e" x="40" y="20"/><rect width="20" height="20" fill="#f6d0bb" x="60" y="20"/><rect width="20" height="20" fill="#fbe6d3" x="80" y="20"/><rect width="20" height="20" fill="#f7edee" y="40"/><rect width="20" height="20" fill="#cca68f" x="20" y="40"/><rect width="20" height="20" fill="#f29363" x="40" y="40"/><rect width="20" height="20" fill="#dab6a6" x="60" y="40"/><rect width="20" height="20" fill="#ffdcb8" x="80" y="40"/><rect width="20" height="20" fill="#f0e5e3" y="60"/><rect width="20" height="20" fill="#d7bfb3" x="20" y="60"/><rect width="20" height="20" fill="#ee7145" x="40" y="60"/><rect width="20" height="20" fill="#ffd4c4" x="60" y="60"/><rect width="20" height="20" fill="#e7b495" x="80" y="60"/><rect width="20" height="20" fill="#f2e8e6" y="80"/><rect width="20" height="20" fill="#e3d6c5" x="20" y="80"/><rect width="20" height="20" fill="#eda47b" x="40" y="80"/><rect width="20" height="20" fill="#7f3417" x="60" y="80"/><rect width="20" height="20" fill="#ffa689" x="80" y="80"/></g></svg>