<svg xmlns="http://www.w3.org/2000/svg" width="100" height="100"><g fill="#111111"><rect width="20" height="20"/><rect width="20" height="20" fill="#141414" x="20"/><rect width="20" height="20" fill="#3a3a3a" x="40"/><rect width="20" height="20" fill="#c2c2c2" x="60"/><rect width="20" height="20" fill="#aeaeae" x="80"/><rect width="20" height="20" fill="#131313" y="20"/><rect width="20" height="20" fill="#161616" x="20" y="20"/><rect width="20" height="20" fill="#3a3a3a" x="40" y="20"/><rect width="20" height="20" fill="#4f4f4f" x="60" y="20"/><rect width="20" height="20" fill="#b8b8b8" x="80" y="20"/><rect width="20" height="20" fill="#121212" y="40"/><rect width="20" height="20" fill="#101010" x="20" y="40"/><rect width="20" height="20" fill="#7f7f7f" x="40" y="40"/><rect width="20" height="20" fill="#a1a1a1" x="60" y="40"/><rect width="20" height="20" fill="#888888" x="80" y="40"/><rect width="20" height="20" fill="#101010" y="60"/><rect width="20" height="20" fill="#0f0f0f" x="20" y="60"/><rect width="20" height="20" fill="#818181" x="40" y="60"/><rect width="20" height="20" fill="#9f9f9f" x="60" y="60"/><rect width="20" height="20" fill="#545454" x="80" y="60"/><rect width="20" height="20" fill="#161616" y="80"/><rect width="20" height="20" fill="#2d2d2d" x="20" y="80"/><rect width="20" height="20" fill="#6f6f6f" x="40" y="80"/><rect width="20" height="20" fill="#a6a6a6" x="60" y="80"/><rect width="20" height="20" fill="#323232" x="80" y="80"/></g></svg>